<?xml version="1.0" encoding="UTF-8"?>
<svg xmlns="http://www.w3.org/2000/svg" onmouseup="{ if(window.parent.document.onmouseup) window.parent.document.onmouseup(arguments[0]);}" xml:space="preserve" style="enable-background:new 0 0 36.34 37;" viewBox="0 0 36.34 37" y="0px" x="0px" id="Layer_1" version="1.1" xmlns:xlink="http://www.w3.org/1999/xlink"><g><path data-cppathid="10000" d="M18.27,35.37c-2.17-0.01-4.28-0.35-6.27-1.18c-0.69-0.29-1.21-0.2-1.83,0.15c-1.21,0.69-2.45,1.35-3.7,1.96   c-1.44,0.71-2.47,0.02-2.3-1.57c0.15-1.43,0.42-2.85,0.69-4.26C5,29.72,4.87,29.15,4.4,28.52C-3.72,17.62,2.47,2.67,15.93,0.61   c9.15-1.4,18.39,5.6,19.5,14.78c1.17,9.71-4.71,17.84-14.3,19.71C20.2,35.28,19.22,35.28,18.27,35.37z M6.32,33.6   c0.14,0.02,0.28,0.04,0.42,0.06c0.92-0.48,1.89-0.89,2.76-1.46c1.02-0.66,1.89-0.63,3.03-0.17c9.48,3.85,19.94-2.59,20.85-12.78   C33.96,12.79,30.35,6.63,24.44,4c-6.06-2.7-13-1.25-17.52,3.64c-4.34,4.7-5.4,12-2.01,17.5C6.61,27.89,7.88,30.36,6.32,33.6z"/><path data-cppathid="10001" d="M19.31,17.97c0,1.83,0,3.66,0,5.5c0,0.8-0.13,1.55-1.16,1.52c-0.95-0.03-1.05-0.77-1.05-1.51c-0.01-3.71,0-7.42,0-11.12   c0-0.8,0.16-1.57,1.16-1.53c0.91,0.04,1.05,0.77,1.05,1.52C19.31,14.22,19.31,16.1,19.31,17.97z"/><path data-cppathid="10002" d="M13.85,17.85c0,0.92,0.02,1.84-0.01,2.75c-0.02,0.74-0.32,1.29-1.16,1.29c-0.79,0-1.05-0.55-1.06-1.23   c-0.02-1.83-0.02-3.67,0-5.5c0.01-0.67,0.28-1.22,1.07-1.22c0.85,0,1.12,0.57,1.14,1.3C13.87,16.1,13.85,16.98,13.85,17.85z"/><path data-cppathid="10003" d="M24.79,18.01c0,0.92,0.03,1.84-0.01,2.75c-0.03,0.62-0.31,1.1-1.02,1.13c-0.76,0.02-1.16-0.44-1.17-1.13   c-0.04-1.92-0.04-3.84,0.01-5.76c0.02-0.62,0.38-1.07,1.09-1.07c0.7,0,1.05,0.43,1.08,1.07c0.05,1,0.01,2.01,0.01,3.01   C24.78,18.01,24.78,18.01,24.79,18.01z"/></g></svg>