<?xml version="1.0" encoding="UTF-8"?>
<svg xmlns="http://www.w3.org/2000/svg" onmouseup="{ if(window.parent.document.onmouseup) window.parent.document.onmouseup(arguments[0]);}" xml:space="preserve" style="enable-background:new 0 0 23.63 26.62;" viewBox="0 0 23.63 26.62" y="0px" x="0px" version="1.1" xmlns:xlink="http://www.w3.org/1999/xlink"><style type="text/css">
	.st0{fill:#FFFFFF;}
	.st1{fill:url(#SVGID_1_);}
</style><g id="Layer_1"/><g id="Layer_2"><path data-cppathid="10000" d="M2.68,9.41L15.94,1.1c3.15-1.97,7.24,0.29,7.24,4.01v0c0,2.41-1.51,4.57-3.77,5.4l-3.65,1.33   c-2.38,0.87-2.38,2.29,0,3.16l3.65,1.33c2.27,0.83,3.77,2.98,3.77,5.39v0c0,3.72-4.09,5.98-7.24,4.01L2.68,17.43   C-0.28,15.57-0.28,11.27,2.68,9.41z" class="st0"/><g><g><linearGradient y2="682.2668" x2="-147.2811" y1="685.3176" x1="-143.3529" gradientUnits="userSpaceOnUse" id="SVGID_1_"><stop style="stop-color:#5271AB" offset="0.1697"/><stop style="stop-color:#73C6F1" offset="0.8"/><stop style="stop-color:#73C6F1;stop-opacity:0" offset="0.9716"/></linearGradient><path data-cppathid="10001" d="M-145.32,686.29c3.22,0,3.22-5,0-5C-148.53,681.29-148.54,686.29-145.32,686.29L-145.32,686.29z" class="st1"/></g></g></g></svg>