<?xml version="1.0" encoding="UTF-8"?>
<svg xmlns="http://www.w3.org/2000/svg" onmouseup="{ if(window.parent.document.onmouseup) window.parent.document.onmouseup(arguments[0]);}" stroke="#ffffff" xml:space="preserve" viewBox="0 0 76.398 76.398" id="Capa_1" version="1.1" width="800px" height="800px" fill="#ffffff" xmlns:xlink="http://www.w3.org/1999/xlink"><g stroke-width="0" id="SVGRepo_bgCarrier"/><g stroke-linejoin="round" stroke-linecap="round" id="SVGRepo_tracerCarrier"/><g id="SVGRepo_iconCarrier"><g><path data-cppathid="10000" d="M58.828,16.208l-3.686,4.735c7.944,6.182,11.908,16.191,10.345,26.123C63.121,62.112,48.954,72.432,33.908,70.06 C18.863,67.69,8.547,53.522,10.912,38.477c1.146-7.289,5.063-13.694,11.028-18.037c5.207-3.79,11.433-5.613,17.776-5.252 l-5.187,5.442l3.848,3.671l8.188-8.596l0.002,0.003l3.668-3.852L46.39,8.188l-0.002,0.001L37.795,0l-3.671,3.852l5.6,5.334 c-7.613-0.36-15.065,1.853-21.316,6.403c-7.26,5.286-12.027,13.083-13.423,21.956c-2.879,18.313,9.676,35.558,27.989,38.442 c1.763,0.277,3.514,0.411,5.245,0.411c16.254-0.001,30.591-11.85,33.195-28.4C73.317,35.911,68.494,23.73,58.828,16.208z"/></g></g></svg>