<?xml version="1.0" encoding="UTF-8"?>
<svg xmlns="http://www.w3.org/2000/svg" onmouseup="{ if(window.parent.document.onmouseup) window.parent.document.onmouseup(arguments[0]);}" xml:space="preserve" style="enable-background:new 0 0 182.14 55.54;" viewBox="0 0 182.14 55.54" y="0px" x="0px" version="1.1" xmlns:xlink="http://www.w3.org/1999/xlink"><style type="text/css">
	.st0{fill:#88CBD7;}
	.st1{fill:url(#SVGID_1_);}
	.st2{fill:url(#SVGID_00000080176885396038648020000010085423289265889457_);}
	.st3{fill:url(#SVGID_00000176006513125540802160000005161367895267424165_);}
	.st4{fill:url(#SVGID_00000096770737549046082910000006798278707167462825_);}
	.st5{fill:#241E3A;}
</style><g id="Layer_1"><g><g><path data-cppathid="10000" d="M15.74,11.48l16.27,9.48c0.02,0.89,9.73,12.44,11.01,12.53l7.62,1.07c1.21,0.09,2.15-0.51,2.13-1.36     L51.8,14.65c-0.02-0.89-1.1-1.71-2.37-1.8L15.74,11.48" class="st0"/><linearGradient gradientTransform="matrix(2.8943 0.3635 -0.0626 2.0115 -2408.8167 -805.2072)" y2="259.1319" x2="854.6714" y1="259.1319" x1="843.1908" gradientUnits="userSpaceOnUse" id="SVGID_1_"><stop style="stop-color:#5D82C0" offset="0"/><stop style="stop-color:#5C8AC5" offset="0.1712"/><stop style="stop-color:#5D9ED2" offset="0.4982"/><stop style="stop-color:#5ABCE4" offset="0.944"/><stop style="stop-color:#5AC0E6" offset="1"/></linearGradient><polyline data-cppathid="10001" points="15.74,11.48 32.21,19.72 34.79,34.18 48.28,37.71 47.92,15.72 15.74,11.48    " class="st1"/><linearGradient gradientTransform="matrix(3.0949 0.3833 -0.0702 2.0107 -2661.3379 -830.2087)" y2="259.358" x2="880.1802" y1="259.358" x1="870.7164" gradientUnits="userSpaceOnUse" id="SVGID_00000013154668656514930560000009640946059304511152_"><stop style="stop-color:#324899" offset="0"/><stop style="stop-color:#445DA8" offset="0.2984"/><stop style="stop-color:#5778B8" offset="0.7582"/><stop style="stop-color:#5D82C0" offset="1"/></linearGradient><polyline data-cppathid="10002" points="15.74,11.48 35.07,21.5      34.74,38.68 44.08,42.29 44.16,17.71 15.74,11.48    " style="fill:url(#SVGID_00000013154668656514930560000009640946059304511152_);"/><linearGradient gradientTransform="matrix(0.9526 0.4435 -0.0758 1.0144 90.5926 -555.7252)" y2="597.36" x2="-37.2927" y1="588.431" x1="-28.0681" gradientUnits="userSpaceOnUse" id="SVGID_00000164505034387538227670000016514752192021375872_"><stop style="stop-color:#324899" offset="0"/><stop style="stop-color:#534E9A" offset="0.2329"/><stop style="stop-color:#6B549D" offset="0.519"/><stop style="stop-color:#78579E" offset="0.7825"/><stop style="stop-color:#7D589E" offset="1"/></linearGradient><path data-cppathid="10003" d="M21.55,30.59     c-4.62,4.5-11.35,6.51-12.71-2.54C8.96,37.09,13.1,42.65,21.55,30.59z" style="fill:url(#SVGID_00000164505034387538227670000016514752192021375872_);"/><linearGradient gradientTransform="matrix(1.0495 0.1402 -0.0175 0.9505 -50.7001 -143.6503)" y2="153.3979" x2="76.0546" y1="186.2467" x1="76.0546" gradientUnits="userSpaceOnUse" id="SVGID_00000004544931799982662340000006485107071874348217_"><stop style="stop-color:#324899" offset="0"/><stop style="stop-color:#534E9A" offset="0.2329"/><stop style="stop-color:#6B549D" offset="0.519"/><stop style="stop-color:#78579E" offset="0.7825"/><stop style="stop-color:#7D589E" offset="1"/></linearGradient><path data-cppathid="10004" d="M38.7,21.12     c-0.01-0.43-0.3-0.87-0.79-1.21l-20.88-8.27c-1.49-0.59-3,0.24-3.01,1.65l-0.14,15.46c1.85,3.73,6.21,1.71,13.24-4.13l-2.28-1.98     L32.28,21l-3.68,8.55l-0.66-3.17c-4.05,4.45-5.79,7.82-6.04,10.33l11.62,8.01c1.53,1.05,3.94,0.59,3.91-0.74L38.7,21.12z" style="fill:url(#SVGID_00000004544931799982662340000006485107071874348217_);"/></g><g><path data-cppathid="10005" d="M75.31,35.27l-2.11-2.02c-1.26,0.79-2.78,1.19-4.56,1.19c-2.6,0-4.66-0.85-6.2-2.56     c-1.53-1.7-2.3-4.01-2.3-6.92c0-2.97,0.77-5.33,2.3-7.07c1.53-1.74,3.6-2.61,6.2-2.61c2.61,0,4.67,0.87,6.2,2.61     s2.29,4.1,2.29,7.07c0,2.62-0.62,4.75-1.87,6.39l1.92,1.86L75.31,35.27z M68.8,29.09l1.86-2.03l1.93,1.8     c0.56-1.01,0.84-2.32,0.84-3.92c0-2.02-0.43-3.59-1.28-4.73c-0.85-1.14-2.03-1.7-3.53-1.7c-1.5,0-2.68,0.57-3.53,1.7     c-0.85,1.14-1.28,2.71-1.28,4.73c0,1.97,0.42,3.51,1.27,4.62c0.85,1.11,2.03,1.66,3.54,1.66c0.74,0.01,1.4-0.13,1.98-0.41     L68.8,29.09z" class="st5"/><path data-cppathid="10006" d="M81.16,20.5v8.42c0,0.82,0.17,1.43,0.52,1.82c0.35,0.39,0.87,0.59,1.58,0.59c0.9,0,1.59-0.28,2.07-0.84     s0.72-1.36,0.72-2.41V20.5h3.45v13.45h-3.29v-2.02c-0.12,0.25-0.26,0.48-0.43,0.7c-0.85,1.11-2.08,1.66-3.69,1.66     c-1.38,0-2.46-0.42-3.23-1.25s-1.16-1.99-1.16-3.48V20.5H81.16z" class="st5"/><path data-cppathid="10007" d="M90.69,15.66h3.51v3.28h-3.51V15.66z M90.72,33.95V20.5h3.45v13.45H90.72z" class="st5"/><path data-cppathid="10008" d="M106.61,28.97c-0.18,1.68-0.79,2.98-1.82,3.92c-1.03,0.94-2.38,1.41-4.03,1.41c-1.98,0-3.51-0.6-4.59-1.81     s-1.62-2.93-1.62-5.18c0-2.19,0.56-3.93,1.68-5.22c1.12-1.29,2.63-1.94,4.52-1.94c1.69,0,3.06,0.48,4.14,1.43     c1.07,0.96,1.65,2.21,1.72,3.76h-3.52c-0.03-0.66-0.26-1.2-0.68-1.61c-0.43-0.41-0.98-0.62-1.65-0.62     c-0.87,0-1.52,0.36-1.98,1.07c-0.45,0.71-0.68,1.75-0.68,3.12c0,1.33,0.23,2.35,0.68,3.05c0.45,0.7,1.11,1.04,1.98,1.04     c0.63,0,1.16-0.22,1.59-0.67c0.43-0.44,0.68-1.03,0.75-1.76H106.61z" class="st5"/><path data-cppathid="10009" d="M106.98,33.95V15.79h3.44v9.81l4.31-5.1h4.25l-4.72,5.1l4.83,8.35h-4.09l-3.15-5.78l-1.44,1.55v4.23H106.98z     " class="st5"/><path data-cppathid="10010" d="M124.35,36.75c0.97,0,1.66-0.24,2.09-0.72c0.42-0.48,0.64-1.28,0.64-2.4v-1.65l-0.28,0.43     c-0.76,1.08-1.85,1.62-3.27,1.62c-1.7,0-3.08-0.63-4.12-1.88s-1.57-2.91-1.57-4.98c0-2.1,0.51-3.8,1.53-5.08s2.36-1.93,4.01-1.93     c1.47,0,2.61,0.55,3.41,1.65c0.16,0.21,0.3,0.44,0.43,0.68V20.5h3.25v12.74c0,2.12-0.51,3.68-1.53,4.69     c-1.02,1.01-2.62,1.51-4.78,1.51c-1.78,0-3.19-0.35-4.24-1.06s-1.61-1.69-1.69-2.95h3.76c0.03,0.45,0.23,0.79,0.61,1     C122.97,36.64,123.56,36.75,124.35,36.75z M124.24,23.21c-0.89,0-1.59,0.35-2.1,1.06s-0.76,1.68-0.76,2.93     c0,1.23,0.25,2.19,0.76,2.88c0.51,0.69,1.2,1.03,2.09,1.03c0.9,0,1.61-0.35,2.12-1.05c0.51-0.7,0.77-1.67,0.77-2.9     c0-1.24-0.26-2.21-0.77-2.9S125.13,23.21,124.24,23.21z" class="st5"/><path data-cppathid="10011" d="M134.83,20.5v8.42c0,0.82,0.17,1.43,0.52,1.82c0.35,0.39,0.87,0.59,1.58,0.59c0.9,0,1.59-0.28,2.07-0.84     s0.72-1.36,0.72-2.41V20.5h3.45v13.45h-3.29v-2.02c-0.12,0.25-0.26,0.48-0.43,0.7c-0.85,1.11-2.08,1.66-3.69,1.66     c-1.38,0-2.46-0.42-3.23-1.25s-1.16-1.99-1.16-3.48V20.5H134.83z" class="st5"/><path data-cppathid="10012" d="M144.37,15.66h3.51v3.28h-3.51V15.66z M144.39,33.95V20.5h3.45v13.45H144.39z" class="st5"/><path data-cppathid="10013" d="M153.79,34.29c-1.67,0-3.01-0.67-4.03-2c-1.02-1.33-1.53-3.09-1.53-5.27c0-2.06,0.51-3.73,1.53-4.98     c1.02-1.26,2.36-1.89,4.01-1.89c1.48,0,2.68,0.64,3.58,1.93l0.15,0.2v-6.49h3.44v18.16h-3.34v-1.72l-0.06,0.08     C156.59,33.63,155.34,34.29,153.79,34.29z M154.72,23.21c-0.92,0-1.64,0.36-2.16,1.09c-0.52,0.73-0.78,1.74-0.78,3.04     c0,1.27,0.26,2.26,0.77,2.97c0.52,0.71,1.23,1.06,2.15,1.06c0.93,0,1.66-0.37,2.18-1.12c0.52-0.75,0.78-1.79,0.78-3.12     c0-1.23-0.26-2.19-0.78-2.88C156.36,23.56,155.64,23.21,154.72,23.21z" class="st5"/><path data-cppathid="10014" d="M167.07,34.29c-1.99,0-3.52-0.63-4.6-1.89c-1.08-1.26-1.62-3.05-1.62-5.38c0-2.15,0.55-3.83,1.64-5.05     c1.1-1.22,2.62-1.82,4.57-1.82c1.99,0,3.52,0.62,4.6,1.86c1.08,1.24,1.62,3.01,1.62,5.3c0.02,0.27,0,0.53-0.06,0.79h-8.91     c0.08,1.07,0.31,1.87,0.69,2.39c0.48,0.66,1.28,0.99,2.4,0.99c0.52,0,1-0.15,1.44-0.45c0.45-0.3,0.72-0.67,0.81-1.11h3.51     c-0.3,1.37-0.99,2.44-2.07,3.22S168.69,34.29,167.07,34.29z M169.7,25.84c-0.07-0.8-0.28-1.43-0.62-1.89     c-0.44-0.6-1.13-0.89-2.06-0.89c-0.88,0-1.56,0.35-2.03,1.05c-0.29,0.45-0.49,1.02-0.62,1.73H169.7z" class="st5"/></g></g></g><g id="Layer_2"/></svg>