<?xml version="1.0" encoding="UTF-8"?>
<svg xmlns="http://www.w3.org/2000/svg" onmouseup="{ if(window.parent.document.onmouseup) window.parent.document.onmouseup(arguments[0]);}" xml:space="preserve" style="enable-background:new 0 0 138.48 44.75;" viewBox="0 0 138.48 44.75" y="0px" x="0px" version="1.1" xmlns:xlink="http://www.w3.org/1999/xlink"><style type="text/css">
	.st0{fill-rule:evenodd;clip-rule:evenodd;fill:#FFFFFF;}
	.st1{filter:url(#Adobe_OpacityMaskFilter);}
	.st2{mask:url(#mask-2_00000042008513958309345550000014075448064964236955_);fill-rule:evenodd;clip-rule:evenodd;fill:#FFFFFF;}
	.st3{fill:#FFFFFF;}
	.st4{filter:url(#Adobe_OpacityMaskFilter_00000144337633001471854010000018024342250082924686_);}
	.st5{mask:url(#mask-8_00000140008604660960388900000010791709578176589960_);fill:#FFFFFF;}
	.st6{fill:url(#SVGID_1_);}
</style><g id="Layer_1"><g id="Page-1_00000164476773353711070750000002336826651044972183_"><g id="GOV.SALogoEN_00000010312865504431781010000013944986629161202088_"><g transform="translate(0.000000, 0.323810)" id="Group-9_00000103241590120821249690000018444196479216320666_"><path data-cppathid="10000" d="M76.88,28.27      c-0.9,0.45-1.81,0.79-2.83,1.02c-1.02,0.23-1.92,0.34-2.94,0.34c-1.24,0-2.26-0.23-3.28-0.57c-1.02-0.34-1.81-0.9-2.6-1.58      c-0.68-0.68-1.24-1.47-1.7-2.49c-0.45-1.02-0.57-2.04-0.57-3.17c0-1.13,0.23-2.26,0.68-3.17c0.45-1.02,1.02-1.81,1.81-2.49      c0.79-0.68,1.58-1.24,2.6-1.58c1.02-0.34,2.04-0.57,3.28-0.57c1.02,0,2.04,0.11,2.94,0.45c0.9,0.34,1.81,0.79,2.49,1.47      l-1.47,1.47c-0.57-0.57-1.13-1.02-1.92-1.24c-0.79-0.34-1.47-0.45-2.26-0.45c-0.9,0-1.7,0.11-2.49,0.45      c-0.79,0.34-1.36,0.79-1.92,1.24c-0.57,0.57-1.02,1.24-1.36,1.92c-0.34,0.79-0.45,1.58-0.45,2.49c0,0.9,0.11,1.7,0.45,2.49      c0.34,0.79,0.79,1.36,1.36,1.92c0.57,0.57,1.24,1.02,2.04,1.24c0.79,0.23,1.58,0.45,2.6,0.45c0.57,0,1.24-0.11,1.92-0.23      c0.68-0.11,1.36-0.34,1.92-0.68V22.5h-3.51v-1.7H77v7.46H76.88z" class="st0" id="Fill-28_00000183214687607380131840000001222812673251416498_"/><path data-cppathid="10001" d="M87.06,27.93c0.9,0,1.7-0.11,2.49-0.45      c0.79-0.34,1.36-0.79,1.92-1.36c0.57-0.57,0.9-1.24,1.24-1.92c0.34-0.79,0.45-1.58,0.45-2.38c0-0.9-0.11-1.7-0.45-2.38      c-0.34-0.79-0.68-1.36-1.24-1.92c-0.57-0.57-1.13-1.02-1.92-1.36c-0.79-0.34-1.58-0.45-2.49-0.45c-0.9,0-1.7,0.11-2.49,0.45      c-0.79,0.34-1.36,0.79-1.92,1.36s-0.9,1.24-1.24,1.92c-0.34,0.79-0.45,1.58-0.45,2.38c0,0.9,0.11,1.7,0.45,2.38      c0.34,0.79,0.68,1.36,1.24,1.92c0.57,0.57,1.13,1.02,1.92,1.36C85.37,27.7,86.16,27.93,87.06,27.93 M87.06,29.51      c-1.13,0-2.26-0.23-3.28-0.57c-1.02-0.34-1.81-0.9-2.49-1.58c-0.68-0.68-1.24-1.47-1.7-2.49c-0.45-0.9-0.57-2.04-0.57-3.17      s0.23-2.15,0.57-3.17c0.45-0.9,0.9-1.81,1.7-2.49c0.68-0.68,1.58-1.24,2.49-1.58c1.02-0.34,2.04-0.57,3.28-0.57      c1.13,0,2.26,0.23,3.17,0.57c1.02,0.34,1.81,0.9,2.49,1.58c0.68,0.68,1.24,1.47,1.7,2.49c0.45,0.9,0.57,2.04,0.57,3.17      s-0.23,2.15-0.57,3.17c-0.45,0.9-0.9,1.81-1.7,2.49c-0.68,0.68-1.58,1.24-2.49,1.58C89.32,29.4,88.31,29.51,87.06,29.51" class="st0" id="Fill-29_00000085934176835777995600000017982118962340639875_"/><polygon data-cppathid="10002" points="95.21,14.24 97.24,14.24       101.99,26.57 101.99,26.57 106.97,14.24 108.89,14.24 102.9,29.17 101.09,29.17     " class="st0" id="Fill-30_00000059299309963809117740000015022894560248083383_"/><path data-cppathid="10003" d="M108.1,26.8c0.34,0,0.68,0.11,0.9,0.34      c0.23,0.23,0.34,0.57,0.34,0.9s-0.11,0.68-0.45,0.9c-0.23,0.23-0.57,0.34-0.9,0.34c-0.34,0-0.68-0.11-0.9-0.34      c-0.23-0.23-0.45-0.57-0.45-0.9s0.11-0.68,0.34-0.9C107.42,26.91,107.76,26.8,108.1,26.8" class="st0" id="Fill-31_00000173877605668702330270000014518994082972744078_"/><path data-cppathid="10004" d="M120.09,16.96      c-0.34-0.45-0.68-0.79-1.24-1.02c-0.45-0.23-1.02-0.34-1.58-0.34c-0.45,0-0.79,0-1.24,0.11c-0.34,0.11-0.79,0.23-1.02,0.45      c-0.34,0.23-0.57,0.45-0.79,0.79c-0.23,0.34-0.23,0.68-0.23,1.13c0,0.34,0,0.68,0.11,0.9c0.11,0.23,0.34,0.45,0.57,0.68      c0.23,0.23,0.57,0.45,1.02,0.57c0.45,0.23,0.9,0.34,1.58,0.57c0.57,0.23,1.13,0.34,1.7,0.57c0.57,0.23,1.02,0.45,1.47,0.79      c0.45,0.34,0.79,0.68,1.02,1.24c0.23,0.45,0.34,1.13,0.34,1.81c0,0.79-0.11,1.36-0.45,1.92c-0.34,0.57-0.68,1.02-1.24,1.36      c-0.45,0.34-1.13,0.68-1.7,0.79c-0.68,0.23-1.36,0.23-2.04,0.23c-0.45,0-0.9,0-1.36-0.11c-0.45-0.11-0.9-0.23-1.36-0.34      c-0.45-0.11-0.79-0.34-1.13-0.68c-0.34-0.23-0.68-0.57-0.9-0.9l1.58-1.24c0.34,0.57,0.79,1.02,1.36,1.24      c0.57,0.23,1.24,0.45,1.92,0.45c0.34,0,0.79,0,1.13-0.11c0.45-0.11,0.79-0.23,1.13-0.45c0.34-0.23,0.57-0.45,0.79-0.79      c0.23-0.34,0.34-0.68,0.34-1.13s-0.11-0.79-0.23-1.13s-0.45-0.57-0.68-0.79c-0.34-0.23-0.79-0.45-1.24-0.57      c-0.57-0.11-1.13-0.34-1.81-0.57c-0.57-0.11-1.02-0.34-1.47-0.57c-0.45-0.23-0.9-0.45-1.24-0.79c-0.34-0.34-0.57-0.68-0.79-1.13      c-0.23-0.45-0.34-1.02-0.34-1.58c0-0.68,0.11-1.36,0.45-1.92c0.34-0.57,0.68-1.02,1.13-1.36c0.45-0.34,1.02-0.68,1.7-0.79      c0.68-0.23,1.24-0.23,1.92-0.23c0.9,0,1.7,0.11,2.38,0.34s1.36,0.68,1.92,1.36L120.09,16.96z" class="st0" id="Fill-32_00000093167953527456849830000012907998679754380699_"/><path data-cppathid="10005" d="M130.04,16.5L130.04,16.5l-3.28,7.35      h6.33L130.04,16.5z M129.25,14.24h1.7l6.56,14.93h-2.15l-1.58-3.62h-7.69l-1.58,3.62h-2.04L129.25,14.24z" class="st0" id="Fill-33_00000033368668745672528220000015638704126505859753_"/><g transform="translate(4.533333, 0.000000)" id="Group-41_00000063612981189082322180000000040206458897752751_"><g id="Group-37_00000160881486477134636490000009477252901659868340_"><g id="Clip-36_00000031915519063752458960000006859442360955460776_"/><defs><filter height="28.39" width="33.46" y="-0.12" x="1.12" filterUnits="userSpaceOnUse" id="Adobe_OpacityMaskFilter"><feColorMatrix values="1 0 0 0 0  0 1 0 0 0  0 0 1 0 0  0 0 0 1 0" type="matrix"/></filter></defs><mask id="mask-2_00000042008513958309345550000014075448064964236955_" height="28.39" width="33.46" y="-0.12" x="1.12" maskUnits="userSpaceOnUse"><g class="st1"><path data-cppathid="10006" d="M1.25,1.57          C0.79,2.93,1.59,4.29,2.83,4.74l0,0C3.96,5.08,5.2,4.63,5.77,3.61l0,0h9.95L32.35,27.7c0.23,0.34,0.68,0.57,1.02,0.57l0,0          c0.23,0,0.45-0.11,0.68-0.23l0,0c0.57-0.34,0.68-1.13,0.34-1.7l0,0L17.42,1.69c-0.23-0.34-0.57-0.57-1.02-0.57l0,0H5.77          c-0.34-0.57-0.79-0.9-1.36-1.13l0,0C4.19-0.12,3.85-0.12,3.62-0.12l0,0C2.6-0.12,1.59,0.56,1.25,1.57" class="st0" id="path-1_00000015324346976210773670000014606658415960821154_"/></g></mask><path data-cppathid="10007" d="M1.25,1.57        C0.79,2.93,1.59,4.29,2.83,4.74l0,0C3.96,5.08,5.2,4.63,5.77,3.61l0,0h9.95L32.35,27.7c0.23,0.34,0.68,0.57,1.02,0.57l0,0        c0.23,0,0.45-0.11,0.68-0.23l0,0c0.57-0.34,0.68-1.13,0.34-1.7l0,0L17.42,1.69c-0.23-0.34-0.57-0.57-1.02-0.57l0,0H5.77        c-0.34-0.57-0.79-0.9-1.36-1.13l0,0C4.19-0.12,3.85-0.12,3.62-0.12l0,0C2.6-0.12,1.59,0.56,1.25,1.57" class="st2" id="Fill-35_00000009557512734863061870000014137212003301196455_"/></g><g id="Group-40_00000139273030540399054100000001328266916512220544_"><g id="Clip-39_00000165938441728982247200000017361827655106564786_"><path data-cppathid="10008" d="M1.25,1.57         C0.79,2.93,1.59,4.29,2.83,4.74l0,0C3.96,5.08,5.2,4.63,5.77,3.61l0,0h9.95L32.35,27.7c0.23,0.34,0.68,0.57,1.02,0.57l0,0         c0.23,0,0.45-0.11,0.68-0.23l0,0c0.57-0.34,0.68-1.13,0.34-1.7l0,0L17.42,1.69c-0.23-0.34-0.57-0.57-1.02-0.57l0,0H5.77         c-0.34-0.57-0.79-0.9-1.36-1.13l0,0C4.19-0.12,3.85-0.12,3.62-0.12l0,0C2.6-0.12,1.59,0.56,1.25,1.57L1.25,1.57z" class="st3" id="path-5_00000122710409406032157950000004272660086045755040_"/></g><path data-cppathid="10009" d="M28.39,40.26        c-0.45,1.36,0.34,2.71,1.58,3.17c1.36,0.45,2.71-0.34,3.17-1.58c0.45-1.36-0.34-2.71-1.58-3.17        c-0.23-0.11-0.57-0.11-0.79-0.11C29.63,38.56,28.73,39.12,28.39,40.26L28.39,40.26z M26.69,8.59        c-0.45,1.36,0.34,2.71,1.58,3.17c1.36,0.45,2.71-0.34,3.17-1.58C31.9,8.81,31.11,7.46,29.86,7c-0.23-0.11-0.57-0.11-0.79-0.11        C28.05,6.89,27.03,7.57,26.69,8.59L26.69,8.59z M18.89,17.3c-0.57,0.34-0.68,1.13-0.34,1.7l4.41,6.33        c0.23,0.34,0.68,0.57,1.02,0.57c0.23,0,0.45-0.11,0.68-0.23c0.57-0.34,0.68-1.13,0.34-1.7l-4.3-6.45        c-0.23-0.34-0.68-0.57-1.02-0.57C19.34,17.07,19.12,17.07,18.89,17.3L18.89,17.3z M28.39,8.36c-0.57,0.34-0.68,1.13-0.34,1.7        L40.27,27.7c0.23,0.34,0.57,0.57,1.02,0.57h6.56l-2.49,4.52H23.3L10.97,14.92c-0.34-0.57-1.13-0.68-1.7-0.34        c-0.57,0.34-0.68,1.13-0.34,1.7L21.72,34.6c0.23,0.34,0.57,0.57,1.02,0.57h23.41l0,0c0.45,0,0.9-0.23,1.13-0.68l3.85-7.01        c0.23-0.34,0.23-0.9,0-1.24c-0.23-0.34-0.68-0.57-1.02-0.57h-8.03L30.09,8.59c-0.23-0.34-0.68-0.57-1.02-0.57        C28.84,8.13,28.62,8.13,28.39,8.36L28.39,8.36z M-2.26,8.13c-0.45,0-0.9,0.23-1.13,0.68c-0.23,0.45-0.23,0.9,0.11,1.24        l21.94,31.67c0.23,0.34,0.57,0.57,1.02,0.57h10.07c0.68,0,1.24-0.57,1.24-1.24s-0.57-1.24-1.24-1.24h-9.39L0.11,10.62h13.35        c0.68,0,1.24-0.57,1.24-1.24c0-0.68-0.57-1.24-1.24-1.24L-2.26,8.13z" class="st0" id="Fill-38_00000167368751210595563420000018435200187329717910_"/></g></g><g transform="translate(0.000000, 7.123810)" id="Group-44_00000145762320125387518010000001213334416287053737_"><g id="Clip-43_00000000941048668055288060000010603081324561110422_"/><defs><filter height="36.77" width="54.84" y="-0.32" x="0.95" filterUnits="userSpaceOnUse" id="Adobe_OpacityMaskFilter_00000096027290578526268550000004860692302568617918_"><feColorMatrix values="1 0 0 0 0  0 1 0 0 0  0 0 1 0 0  0 0 0 1 0" type="matrix"/></filter></defs><mask id="mask-8_00000140008604660960388900000010791709578176589960_" height="36.77" width="54.84" y="-0.32" x="0.95" maskUnits="userSpaceOnUse"><g style="filter:url(#Adobe_OpacityMaskFilter_00000096027290578526268550000004860692302568617918_);"><path data-cppathid="10010" d="M31.3,1.49         c-0.45,1.36,0.34,2.71,1.58,3.17l0,0c0.34,0.11,0.68,0.11,1.02,0.11l0,0L44.88,20.6c0.23,0.34,0.57,0.57,1.02,0.57l0,0h6.56         l-2.49,4.52H27.91L15.47,7.82c-0.34-0.57-1.13-0.68-1.7-0.34l0,0c-0.57,0.34-0.68,1.13-0.34,1.7l0,0L26.21,27.5         c0.23,0.34,0.57,0.57,1.02,0.57l0,0h23.41l0,0c0.45,0,0.9-0.23,1.13-0.68l0,0l3.85-7.01c0.23-0.34,0.23-0.9,0-1.24l0,0         c-0.23-0.34-0.68-0.57-1.02-0.57l0,0h-8.03L35.94,3.3c0-0.11,0.11-0.23,0.11-0.34l0,0c0.45-1.36-0.34-2.71-1.58-3.17l0,0         c-0.23-0.11-0.57-0.11-0.79-0.11l0,0C32.55-0.32,31.64,0.36,31.3,1.49L31.3,1.49z M2.24,1.04c-0.45,0-0.9,0.23-1.13,0.68l0,0         c-0.23,0.45-0.23,0.9,0.11,1.24l0,0l21.94,31.67c0.23,0.34,0.57,0.57,1.02,0.57l0,0H33c0.34,0.57,0.79,0.9,1.36,1.13l0,0         c1.36,0.45,2.71-0.34,3.17-1.58l0,0c0.45-1.36-0.34-2.71-1.58-3.17l0,0c-0.23-0.11-0.57-0.11-0.79-0.11l0,0         c-0.9,0-1.7,0.45-2.15,1.24l0,0h-8.26L4.61,3.41h13.35c0.68,0,1.24-0.57,1.24-1.24l0,0c0-0.68-0.57-1.24-1.24-1.24l0,0H2.24         V1.04z M23.5,10.09c-0.57,0.34-0.68,1.13-0.34,1.7l0,0l4.41,6.33c0.23,0.34,0.68,0.57,1.02,0.57l0,0         c0.23,0,0.45-0.11,0.68-0.23l0,0c0.57-0.34,0.68-1.13,0.34-1.7l0,0l-4.41-6.33c-0.23-0.34-0.68-0.57-1.02-0.57l0,0         C23.95,9.86,23.61,9.97,23.5,10.09L23.5,10.09z" class="st0" id="path-7_00000170993547006172180240000011541614077782627728_"/></g></mask><path data-cppathid="10011" d="M31.3,1.49       c-0.45,1.36,0.34,2.71,1.58,3.17l0,0c0.34,0.11,0.68,0.11,1.02,0.11l0,0L44.88,20.6c0.23,0.34,0.57,0.57,1.02,0.57l0,0h6.56       l-2.49,4.52H27.91L15.47,7.82c-0.34-0.57-1.13-0.68-1.7-0.34l0,0c-0.57,0.34-0.68,1.13-0.34,1.7l0,0L26.21,27.5       c0.23,0.34,0.57,0.57,1.02,0.57l0,0h23.41l0,0c0.45,0,0.9-0.23,1.13-0.68l0,0l3.85-7.01c0.23-0.34,0.23-0.9,0-1.24l0,0       c-0.23-0.34-0.68-0.57-1.02-0.57l0,0h-8.03L35.94,3.3c0-0.11,0.11-0.23,0.11-0.34l0,0c0.45-1.36-0.34-2.71-1.58-3.17l0,0       c-0.23-0.11-0.57-0.11-0.79-0.11l0,0C32.55-0.32,31.64,0.36,31.3,1.49L31.3,1.49z M2.24,1.04c-0.45,0-0.9,0.23-1.13,0.68       c-0.23,0.45-0.23,0.9,0.11,1.24l21.94,31.67c0.23,0.34,0.57,0.57,1.02,0.57H33c0.34,0.57,0.79,0.9,1.36,1.13       c1.36,0.45,2.71-0.34,3.17-1.58c0.45-1.36-0.34-2.71-1.58-3.17c-0.23-0.11-0.57-0.11-0.79-0.11c-0.9,0-1.7,0.45-2.15,1.24       h-8.26L4.61,3.41h13.35c0.68,0,1.24-0.57,1.24-1.24s-0.57-1.24-1.24-1.24H2.24V1.04z M23.5,10.09       c-0.57,0.34-0.68,1.13-0.34,1.7l0,0l4.41,6.33c0.23,0.34,0.68,0.57,1.02,0.57l0,0c0.23,0,0.45-0.11,0.68-0.23l0,0       c0.57-0.34,0.68-1.13,0.34-1.7l0,0l-4.41-6.33c-0.23-0.34-0.68-0.57-1.02-0.57l0,0C23.95,9.86,23.61,9.97,23.5,10.09       L23.5,10.09z" class="st5" id="Fill-42_00000147927781964040409320000006181207060312728478_"/></g></g><g id="Clip-16_00000119840684590376224140000015432849895917722770_"/></g></g></g><g id="Layer_2"><g><g><linearGradient y2="684.1561" x2="-181.244" y1="687.207" x1="-177.3158" gradientUnits="userSpaceOnUse" id="SVGID_1_"><stop style="stop-color:#5271AB" offset="0.1697"/><stop style="stop-color:#73C6F1" offset="0.8"/><stop style="stop-color:#73C6F1;stop-opacity:0" offset="0.9716"/></linearGradient><path data-cppathid="10012" d="M-179.28,688.18c3.22,0,3.22-5,0-5C-182.5,683.18-182.5,688.18-179.28,688.18L-179.28,688.18z" class="st6"/></g></g></g></svg>