<?xml version="1.0" encoding="UTF-8"?>
<svg xmlns="http://www.w3.org/2000/svg" onmouseup="{ if(window.parent.document.onmouseup) window.parent.document.onmouseup(arguments[0]);}" xml:space="preserve" style="enable-background:new 0 0 159.12 54.3;" viewBox="0 0 159.12 54.3" y="0px" x="0px" version="1.1" xmlns:xlink="http://www.w3.org/1999/xlink"><style type="text/css">
	.st0{fill-rule:evenodd;clip-rule:evenodd;fill:#0A7EB5;}
	.st1{filter:url(#Adobe_OpacityMaskFilter);}
	.st2{fill-rule:evenodd;clip-rule:evenodd;fill:#FFFFFF;}
	
		.st3{mask:url(#mask-2_00000116209323060275248050000008702627431330999476_);fill-rule:evenodd;clip-rule:evenodd;fill:url(#Fill-35_00000093865807648856082730000012412439069435680419_);}
	.st4{fill:url(#path-5_00000080913828840386628960000002782387176925008523_);}
	.st5{fill-rule:evenodd;clip-rule:evenodd;fill:#606060;}
	.st6{filter:url(#Adobe_OpacityMaskFilter_00000105420956025720050320000009069556898305760942_);}
	
		.st7{mask:url(#mask-8_00000127735899293159842910000016926240361823498429_);fill:url(#Fill-42_00000007428646659376379300000002660399666061988281_);}
	.st8{fill:#3A336E;}
</style><g id="Layer_1"><g id="Page-1_00000039841182457990856920000013820135463071681706_"><g id="GOV.SALogoEN_00000053513024423144000990000009552695496883511454_"><g transform="translate(0.000000, 0.323810)" id="Group-9_00000119806275149905032230000002875029329586808195_"><path data-cppathid="10000" d="M87.39,33.98      c-1.02,0.51-2.04,0.89-3.19,1.15c-1.15,0.26-2.17,0.38-3.32,0.38c-1.41,0-2.56-0.26-3.71-0.64c-1.15-0.38-2.04-1.02-2.94-1.79      c-0.77-0.77-1.41-1.66-1.92-2.81c-0.51-1.15-0.64-2.3-0.64-3.58s0.26-2.56,0.77-3.58c0.51-1.15,1.15-2.04,2.04-2.81      c0.89-0.77,1.79-1.41,2.94-1.79c1.15-0.38,2.3-0.64,3.71-0.64c1.15,0,2.3,0.13,3.32,0.51c1.02,0.38,2.04,0.89,2.81,1.66      l-1.66,1.66c-0.64-0.64-1.28-1.15-2.17-1.41c-0.89-0.38-1.66-0.51-2.56-0.51c-1.02,0-1.92,0.13-2.81,0.51      c-0.89,0.38-1.53,0.89-2.17,1.41c-0.64,0.64-1.15,1.41-1.53,2.17c-0.38,0.89-0.51,1.79-0.51,2.81c0,1.02,0.13,1.92,0.51,2.81      s0.89,1.53,1.53,2.17c0.64,0.64,1.41,1.15,2.3,1.41c0.89,0.26,1.79,0.51,2.94,0.51c0.64,0,1.41-0.13,2.17-0.26      c0.77-0.13,1.53-0.38,2.17-0.77v-5.11h-3.96v-1.92h6v8.43H87.39z" class="st0" id="Fill-28_00000089533706463543453350000008863444091344861056_"/><path data-cppathid="10001" d="M98.89,33.6c1.02,0,1.92-0.13,2.81-0.51      c0.89-0.38,1.53-0.89,2.17-1.53c0.64-0.64,1.02-1.41,1.41-2.17c0.38-0.89,0.51-1.79,0.51-2.68c0-1.02-0.13-1.92-0.51-2.68      c-0.38-0.89-0.77-1.53-1.41-2.17c-0.64-0.64-1.28-1.15-2.17-1.53s-1.79-0.51-2.81-0.51c-1.02,0-1.92,0.13-2.81,0.51      c-0.89,0.38-1.53,0.89-2.17,1.53c-0.64,0.64-1.02,1.41-1.41,2.17c-0.38,0.89-0.51,1.79-0.51,2.68c0,1.02,0.13,1.92,0.51,2.68      c0.38,0.89,0.77,1.53,1.41,2.17c0.64,0.64,1.28,1.15,2.17,1.53C96.98,33.34,97.87,33.6,98.89,33.6 M98.89,35.38      c-1.28,0-2.56-0.26-3.71-0.64s-2.04-1.02-2.81-1.79c-0.77-0.77-1.41-1.66-1.92-2.81c-0.51-1.02-0.64-2.3-0.64-3.58      s0.26-2.43,0.64-3.58c0.51-1.02,1.02-2.04,1.92-2.81c0.77-0.77,1.79-1.41,2.81-1.79c1.15-0.38,2.3-0.64,3.71-0.64      c1.28,0,2.56,0.26,3.58,0.64c1.15,0.38,2.04,1.02,2.81,1.79c0.77,0.77,1.41,1.66,1.92,2.81c0.51,1.02,0.64,2.3,0.64,3.58      s-0.26,2.43-0.64,3.58c-0.51,1.02-1.02,2.04-1.92,2.81c-0.77,0.77-1.79,1.41-2.81,1.79C101.45,35.26,100.3,35.38,98.89,35.38" class="st0" id="Fill-29_00000003086943187124384990000005274927206434806177_"/><polygon data-cppathid="10002" points="108.09,18.14 110.39,18.14       115.76,32.06 115.76,32.06 121.38,18.14 123.55,18.14 116.78,35 114.74,35     " class="st0" id="Fill-30_00000012444137261162452970000012116752299983483327_"/><path data-cppathid="10003" d="M122.66,32.32      c0.38,0,0.77,0.13,1.02,0.38c0.26,0.26,0.38,0.64,0.38,1.02c0,0.38-0.13,0.77-0.51,1.02c-0.26,0.26-0.64,0.38-1.02,0.38      s-0.77-0.13-1.02-0.38c-0.26-0.26-0.51-0.64-0.51-1.02c0-0.38,0.13-0.77,0.38-1.02C121.89,32.45,122.27,32.32,122.66,32.32" class="st0" id="Fill-31_00000129169946726354514880000001098960497106811810_"/><path data-cppathid="10004" d="M136.2,21.2      c-0.38-0.51-0.77-0.89-1.41-1.15c-0.51-0.26-1.15-0.38-1.79-0.38c-0.51,0-0.89,0-1.41,0.13c-0.38,0.13-0.89,0.26-1.15,0.51      c-0.38,0.26-0.64,0.51-0.89,0.89s-0.26,0.77-0.26,1.28c0,0.38,0,0.77,0.13,1.02c0.13,0.26,0.38,0.51,0.64,0.77      c0.26,0.26,0.64,0.51,1.15,0.64c0.51,0.26,1.02,0.38,1.79,0.64c0.64,0.26,1.28,0.38,1.92,0.64c0.64,0.26,1.15,0.51,1.66,0.89      c0.51,0.38,0.89,0.77,1.15,1.41c0.26,0.51,0.38,1.28,0.38,2.04c0,0.89-0.13,1.53-0.51,2.17s-0.77,1.15-1.41,1.53      c-0.51,0.38-1.28,0.77-1.92,0.89c-0.77,0.26-1.53,0.26-2.3,0.26c-0.51,0-1.02,0-1.53-0.13s-1.02-0.26-1.53-0.38      c-0.51-0.13-0.89-0.38-1.28-0.77c-0.38-0.26-0.77-0.64-1.02-1.02l1.79-1.41c0.38,0.64,0.89,1.15,1.53,1.41      c0.64,0.26,1.41,0.51,2.17,0.51c0.38,0,0.89,0,1.28-0.13c0.51-0.13,0.89-0.26,1.28-0.51c0.38-0.26,0.64-0.51,0.89-0.89      c0.26-0.38,0.38-0.77,0.38-1.28s-0.13-0.89-0.26-1.28s-0.51-0.64-0.77-0.89c-0.38-0.26-0.89-0.51-1.41-0.64      c-0.64-0.13-1.28-0.38-2.04-0.64c-0.64-0.13-1.15-0.38-1.66-0.64s-1.02-0.51-1.41-0.89c-0.38-0.38-0.64-0.77-0.89-1.28      c-0.26-0.51-0.38-1.15-0.38-1.79c0-0.77,0.13-1.53,0.51-2.17s0.77-1.15,1.28-1.53c0.51-0.38,1.15-0.77,1.92-0.89      c0.77-0.26,1.41-0.26,2.17-0.26c1.02,0,1.92,0.13,2.68,0.38c0.77,0.26,1.53,0.77,2.17,1.53L136.2,21.2z" class="st0" id="Fill-32_00000163782835358430727360000005014605826882938781_"/><path data-cppathid="10005" d="M147.44,20.69L147.44,20.69l-3.71,8.3      h7.15L147.44,20.69z M146.55,18.14h1.92L155.87,35h-2.43l-1.79-4.09h-8.69L141.18,35h-2.3L146.55,18.14z" class="st0" id="Fill-33_00000108284496784949924130000006353204284494851231_"/><g transform="translate(4.533333, 0.000000)" id="Group-41_00000039834612536415730010000011526490092826699910_"><g id="Group-37_00000000202936113629475400000001181649555257331388_"><g id="Clip-36_00000159459840635937852850000000608771908209702056_"/><defs><filter height="32.07" width="37.8" y="1.91" x="2.4" filterUnits="userSpaceOnUse" id="Adobe_OpacityMaskFilter"><feColorMatrix values="1 0 0 0 0  0 1 0 0 0  0 0 1 0 0  0 0 0 1 0" type="matrix"/></filter></defs><mask id="mask-2_00000116209323060275248050000008702627431330999476_" height="32.07" width="37.8" y="1.91" x="2.4" maskUnits="userSpaceOnUse"><g class="st1"><path data-cppathid="10006" d="M2.54,3.83          C2.03,5.36,2.92,6.89,4.33,7.4l0,0c1.28,0.38,2.68-0.13,3.32-1.28l0,0h11.24l18.78,27.21c0.26,0.38,0.77,0.64,1.15,0.64l0,0          c0.26,0,0.51-0.13,0.77-0.26l0,0c0.64-0.38,0.77-1.28,0.38-1.92l0,0L20.81,3.95c-0.26-0.38-0.64-0.64-1.15-0.64l0,0H7.65          C7.27,2.68,6.76,2.29,6.12,2.04l0,0C5.86,1.91,5.48,1.91,5.22,1.91l0,0C4.07,1.91,2.92,2.68,2.54,3.83" class="st2" id="path-1_00000173870307332093136520000007206091510720814464_"/></g></mask><linearGradient gradientTransform="matrix(33.1371 0 0 28.003 -23170.1582 -9594.5898)" y2="343.268" x2="701.0939" y1="343.268" x1="699.0439" gradientUnits="userSpaceOnUse" id="Fill-35_00000098908545892546624290000012980033049023847863_"><stop style="stop-color:#1C9383" offset="0"/><stop style="stop-color:#23423D" offset="1"/></linearGradient><path data-cppathid="10007" d="        M2.54,3.83C2.03,5.36,2.92,6.89,4.33,7.4l0,0c1.28,0.38,2.68-0.13,3.32-1.28l0,0h11.24l18.78,27.21        c0.26,0.38,0.77,0.64,1.15,0.64l0,0c0.26,0,0.51-0.13,0.77-0.26l0,0c0.64-0.38,0.77-1.28,0.38-1.92l0,0L20.81,3.95        c-0.26-0.38-0.64-0.64-1.15-0.64l0,0H7.65C7.27,2.68,6.76,2.29,6.12,2.04l0,0C5.86,1.91,5.48,1.91,5.22,1.91l0,0        C4.07,1.91,2.92,2.68,2.54,3.83" style="mask:url(#mask-2_00000116209323060275248050000008702627431330999476_);fill-rule:evenodd;clip-rule:evenodd;fill:url(#Fill-35_00000098908545892546624290000012980033049023847863_);" id="Fill-35_00000035492981369031645630000007466726281033703837_"/></g><g id="Group-40_00000116225914867455111740000004939654958133612980_"><g id="Clip-39_00000021821889702429655160000014893101198676509340_"><linearGradient gradientTransform="matrix(33.1371 0 0 28.003 -23170.1582 -9594.5898)" y2="344.1147" x2="699.8636" y1="342.8743" x1="699.8636" gradientUnits="userSpaceOnUse" id="path-5_00000010991254065761187930000005222856226593431704_"><stop style="stop-color:#2FB2B3" offset="0"/><stop style="stop-color:#0D92B5" offset="0.2747"/><stop style="stop-color:#0A7EB5" offset="0.4756"/><stop style="stop-color:#6E4D96" offset="1"/></linearGradient><path data-cppathid="10008" d="         M2.54,3.83C2.03,5.36,2.92,6.89,4.33,7.4l0,0c1.28,0.38,2.68-0.13,3.32-1.28l0,0h11.24l18.78,27.21         c0.26,0.38,0.77,0.64,1.15,0.64l0,0c0.26,0,0.51-0.13,0.77-0.26l0,0c0.64-0.38,0.77-1.28,0.38-1.92l0,0L20.81,3.95         c-0.26-0.38-0.64-0.64-1.15-0.64l0,0H7.65C7.27,2.68,6.76,2.29,6.12,2.04l0,0C5.86,1.91,5.48,1.91,5.22,1.91l0,0         C4.07,1.91,2.92,2.68,2.54,3.83L2.54,3.83z" style="fill:url(#path-5_00000010991254065761187930000005222856226593431704_);" id="path-5_00000162329678785709267330000018215098851194203787_"/></g><path data-cppathid="10009" d="M33.2,47.52        c-0.51,1.53,0.38,3.07,1.79,3.58c1.53,0.51,3.07-0.38,3.58-1.79c0.51-1.53-0.38-3.07-1.79-3.58        c-0.26-0.13-0.64-0.13-0.89-0.13C34.61,45.61,33.59,46.24,33.2,47.52L33.2,47.52z M31.29,11.75        c-0.51,1.53,0.38,3.07,1.79,3.58c1.53,0.51,3.07-0.38,3.58-1.79c0.51-1.53-0.38-3.07-1.79-3.58        c-0.26-0.13-0.64-0.13-0.89-0.13C32.82,9.83,31.67,10.6,31.29,11.75L31.29,11.75z M22.47,21.59        c-0.64,0.38-0.77,1.28-0.38,1.92l4.98,7.15c0.26,0.38,0.77,0.64,1.15,0.64c0.26,0,0.51-0.13,0.77-0.26        c0.64-0.38,0.77-1.28,0.38-1.92l-4.85-7.28c-0.26-0.38-0.77-0.64-1.15-0.64C22.98,21.33,22.73,21.33,22.47,21.59L22.47,21.59z         M33.2,11.49c-0.64,0.38-0.77,1.28-0.38,1.92l13.8,19.93c0.26,0.38,0.64,0.64,1.15,0.64h7.41l-2.81,5.11H27.45L13.53,18.9        c-0.38-0.64-1.28-0.77-1.92-0.38c-0.64,0.38-0.77,1.28-0.38,1.92l14.44,20.7c0.26,0.38,0.64,0.64,1.15,0.64h26.45l0,0        c0.51,0,1.02-0.26,1.28-0.77l4.34-7.92c0.26-0.38,0.26-1.02,0-1.41c-0.26-0.38-0.77-0.64-1.15-0.64h-9.07L35.12,11.75        c-0.26-0.38-0.77-0.64-1.15-0.64C33.71,11.24,33.46,11.24,33.2,11.49L33.2,11.49z M-1.42,11.24c-0.51,0-1.02,0.26-1.28,0.77        c-0.26,0.51-0.26,1.02,0.13,1.41l24.79,35.77c0.26,0.38,0.64,0.64,1.15,0.64h11.37c0.77,0,1.41-0.64,1.41-1.41        c0-0.77-0.64-1.41-1.41-1.41h-10.6L1.26,14.05h15.08c0.77,0,1.41-0.64,1.41-1.41s-0.64-1.41-1.41-1.41        C16.34,11.24-1.42,11.24-1.42,11.24z" class="st5" id="Fill-38_00000101795017304128065290000017204731306450025901_"/></g></g><g transform="translate(0.000000, 7.123810)" id="Group-44_00000000907744848468685630000015197427752516845716_"><g id="Clip-43_00000088855388592105914220000006386451901456103607_"/><defs><filter height="41.54" width="61.95" y="2.61" x="1.62" filterUnits="userSpaceOnUse" id="Adobe_OpacityMaskFilter_00000166650274238718891010000008459307644151529861_"><feColorMatrix values="1 0 0 0 0  0 1 0 0 0  0 0 1 0 0  0 0 0 1 0" type="matrix"/></filter></defs><mask id="mask-8_00000127735899293159842910000016926240361823498429_" height="41.54" width="61.95" y="2.61" x="1.62" maskUnits="userSpaceOnUse"><g style="filter:url(#Adobe_OpacityMaskFilter_00000166650274238718891010000008459307644151529861_);"><path data-cppathid="10010" d="M35.91,4.65         c-0.51,1.53,0.38,3.07,1.79,3.58l0,0c0.38,0.13,0.77,0.13,1.15,0.13l0,0l12.39,17.89c0.26,0.38,0.64,0.64,1.15,0.64l0,0h7.41         L56.99,32H32.07L18.02,11.81c-0.38-0.64-1.28-0.77-1.92-0.38l0,0c-0.64,0.38-0.77,1.28-0.38,1.92l0,0l14.44,20.7         c0.26,0.38,0.64,0.64,1.15,0.64l0,0h26.45l0,0c0.51,0,1.02-0.26,1.28-0.77l0,0l4.34-7.92c0.26-0.38,0.26-1.02,0-1.41l0,0         c-0.26-0.38-0.77-0.64-1.15-0.64l0,0h-9.07L41.14,6.7c0-0.13,0.13-0.26,0.13-0.38l0,0c0.51-1.53-0.38-3.07-1.79-3.58l0,0         c-0.26-0.13-0.64-0.13-0.89-0.13l0,0C37.31,2.61,36.29,3.38,35.91,4.65L35.91,4.65z M3.07,4.14c-0.51,0-1.02,0.26-1.28,0.77         l0,0C1.54,5.42,1.54,5.93,1.92,6.32l0,0l24.79,35.77c0.26,0.38,0.64,0.64,1.15,0.64l0,0h9.97c0.38,0.64,0.89,1.02,1.53,1.28         l0,0c1.53,0.51,3.07-0.38,3.58-1.79l0,0c0.51-1.53-0.38-3.07-1.79-3.58l0,0c-0.26-0.13-0.64-0.13-0.89-0.13l0,0         c-1.02,0-1.92,0.51-2.43,1.41l0,0H28.5L5.75,6.83h15.08c0.77,0,1.41-0.64,1.41-1.41l0,0c0-0.77-0.64-1.41-1.41-1.41l0,0H3.07         V4.14z M27.09,14.36c-0.64,0.38-0.77,1.28-0.38,1.92l0,0l4.98,7.15c0.26,0.38,0.77,0.64,1.15,0.64l0,0         c0.26,0,0.51-0.13,0.77-0.26l0,0c0.64-0.38,0.77-1.28,0.38-1.92l0,0l-4.98-7.15c-0.26-0.38-0.77-0.64-1.15-0.64l0,0         C27.6,14.11,27.22,14.24,27.09,14.36L27.09,14.36z" class="st2" id="path-7_00000031911081321889584820000008566255706645056928_"/></g></mask><linearGradient gradientTransform="matrix(54.0165 0 0 36.1728 -38719.4844 -12358.7998)" y2="342.6345" x2="717.4118" y1="341.4914" x1="717.4118" gradientUnits="userSpaceOnUse" id="Fill-42_00000128477928697651933180000001274048983297251751_"><stop style="stop-color:#2FB2B3" offset="0"/><stop style="stop-color:#0D92B5" offset="0.4386"/><stop style="stop-color:#0A7EB5" offset="0.7099"/><stop style="stop-color:#6E4D96" offset="1"/></linearGradient><path data-cppathid="10011" d="       M35.91,4.65c-0.51,1.53,0.38,3.07,1.79,3.58l0,0c0.38,0.13,0.77,0.13,1.15,0.13l0,0l12.39,17.89c0.26,0.38,0.64,0.64,1.15,0.64       l0,0h7.41L56.99,32H32.07L18.02,11.81c-0.38-0.64-1.28-0.77-1.92-0.38l0,0c-0.64,0.38-0.77,1.28-0.38,1.92l0,0l14.44,20.7       c0.26,0.38,0.64,0.64,1.15,0.64l0,0h26.45l0,0c0.51,0,1.02-0.26,1.28-0.77l0,0l4.34-7.92c0.26-0.38,0.26-1.02,0-1.41l0,0       c-0.26-0.38-0.77-0.64-1.15-0.64l0,0h-9.07L41.14,6.7c0-0.13,0.13-0.26,0.13-0.38l0,0c0.51-1.53-0.38-3.07-1.79-3.58l0,0       c-0.26-0.13-0.64-0.13-0.89-0.13l0,0C37.31,2.61,36.29,3.38,35.91,4.65L35.91,4.65z M3.07,4.14c-0.51,0-1.02,0.26-1.28,0.77       C1.54,5.42,1.54,5.93,1.92,6.32l24.79,35.77c0.26,0.38,0.64,0.64,1.15,0.64h9.97c0.38,0.64,0.89,1.02,1.53,1.28       c1.53,0.51,3.07-0.38,3.58-1.79c0.51-1.53-0.38-3.07-1.79-3.58c-0.26-0.13-0.64-0.13-0.89-0.13c-1.02,0-1.92,0.51-2.43,1.41       H28.5L5.75,6.83h15.08c0.77,0,1.41-0.64,1.41-1.41s-0.64-1.41-1.41-1.41H3.07V4.14z M27.09,14.36       c-0.64,0.38-0.77,1.28-0.38,1.92l0,0l4.98,7.15c0.26,0.38,0.77,0.64,1.15,0.64l0,0c0.26,0,0.51-0.13,0.77-0.26l0,0       c0.64-0.38,0.77-1.28,0.38-1.92l0,0l-4.98-7.15c-0.26-0.38-0.77-0.64-1.15-0.64l0,0C27.6,14.11,27.22,14.24,27.09,14.36       L27.09,14.36z" style="mask:url(#mask-8_00000127735899293159842910000016926240361823498429_);fill:url(#Fill-42_00000128477928697651933180000001274048983297251751_);" id="Fill-42_00000138568822452670835720000009801951701362677681_"/></g></g><g id="Clip-16_00000134234652208685218810000013892059113075839129_"/><path data-cppathid="10012" d="M74.36,49.86     c0.38,0,0.64,0,0.89-0.13c0.26-0.13,0.51-0.26,0.64-0.51c0.13-0.26,0.26-0.38,0.38-0.64c0.13-0.26,0.13-0.51,0.13-0.89l0,0v-3.32     h-0.64v3.19c0,0.26,0,0.38-0.13,0.64c0,0.26-0.13,0.38-0.26,0.51c-0.13,0.13-0.26,0.26-0.38,0.38c-0.13,0.13-0.38,0.13-0.64,0.13     s-0.51,0-0.64-0.13c-0.13-0.13-0.26-0.26-0.38-0.38c-0.13-0.13-0.26-0.26-0.38-0.51c0-0.26-0.13-0.38-0.13-0.64l0,0v-3.19h-0.64     v3.32c0,0.26,0,0.64,0.13,0.89c0.13,0.26,0.13,0.51,0.38,0.64c0.13,0.26,0.38,0.38,0.64,0.51C73.6,49.86,73.98,49.86,74.36,49.86     z M78.2,49.73v-1.79c0-0.26,0-0.38,0.13-0.51c0-0.13,0.13-0.26,0.26-0.38c0.13-0.13,0.26-0.26,0.38-0.26     c0.13-0.13,0.26-0.13,0.51-0.13c0.26,0,0.51,0.13,0.64,0.26c0.13,0.13,0.26,0.38,0.26,0.77l0,0v2.04h0.64v-2.17     c0-0.26,0-0.38-0.13-0.64c-0.13-0.26-0.13-0.38-0.26-0.51c-0.13-0.13-0.26-0.26-0.38-0.26c-0.13,0-0.38-0.13-0.64-0.13     c-0.13,0-0.26,0-0.38,0c-0.13,0-0.26,0.13-0.38,0.13c-0.13,0-0.13,0.13-0.26,0.26s-0.13,0.13-0.13,0.26l0,0l0,0     c0-0.13,0-0.26,0-0.26c0-0.13,0-0.26,0-0.26l0,0h-0.51c0,0.13,0,0.26,0,0.38c0,0.13,0,0.26,0,0.51l0,0v2.68H78.2z M82.16,45.26     c0.13,0,0.26,0,0.26-0.13c0.13-0.13,0.13-0.13,0.13-0.26c0-0.13,0-0.26-0.13-0.26c-0.13-0.13-0.13-0.13-0.26-0.13     s-0.26,0-0.26,0.13c-0.13,0.13-0.13,0.13-0.13,0.26c0,0.13,0,0.26,0.13,0.26C81.9,45.13,82.03,45.26,82.16,45.26z M82.41,49.73     v-3.58h-0.64v3.58H82.41z M84.46,49.73v-3.07h0.89v-0.51h-0.89v-0.64c0-0.13,0-0.26,0-0.38c0-0.13,0-0.26,0.13-0.38     c0-0.13,0.13-0.13,0.13-0.26c0-0.13,0.26-0.13,0.38-0.13c0.13,0,0.26,0,0.38,0.13l0,0l0.13-0.51c0,0-0.13,0-0.26-0.13     c-0.13,0-0.13,0-0.26,0c-0.26,0-0.38,0-0.64,0.13c-0.13,0.13-0.26,0.13-0.38,0.26c-0.13,0.13-0.13,0.26-0.26,0.51     c0,0.13,0,0.38,0,0.64l0,0v0.77h-0.77v0.51h0.77v3.07H84.46z M86.24,45.26c0.13,0,0.26,0,0.26-0.13     c0.13-0.13,0.13-0.13,0.13-0.26c0-0.13,0-0.26-0.13-0.26c-0.13-0.13-0.13-0.13-0.26-0.13s-0.26,0-0.26,0.13     c-0.13,0.13-0.13,0.13-0.13,0.26c0,0.13,0,0.26,0.13,0.26C85.99,45.13,86.12,45.26,86.24,45.26z M86.5,49.73v-3.58h-0.64v3.58     H86.5z M89.31,49.86c0.38,0,0.64,0,0.89-0.13c0.26-0.13,0.51-0.26,0.64-0.64l0,0l-0.38-0.38c-0.13,0.13-0.26,0.26-0.51,0.38     c-0.13,0.13-0.38,0.13-0.64,0.13c-0.13,0-0.26,0-0.38-0.13c-0.13,0-0.26-0.13-0.38-0.26c-0.13-0.13-0.13-0.26-0.26-0.38     c-0.13-0.13-0.13-0.26-0.13-0.38l0,0h2.81v-0.13c0-0.26,0-0.51-0.13-0.77c-0.13-0.26-0.26-0.38-0.38-0.64     c-0.13-0.26-0.38-0.26-0.51-0.38s-0.38-0.13-0.64-0.13c-0.26,0-0.51,0-0.77,0.13c-0.26,0.13-0.38,0.26-0.64,0.38     c-0.13,0.13-0.26,0.38-0.38,0.64c-0.13,0.26-0.13,0.51-0.13,0.77c0,0.26,0,0.51,0.13,0.77s0.26,0.38,0.38,0.64     c0.13,0.13,0.38,0.26,0.51,0.38C88.54,49.86,88.93,49.86,89.31,49.86z M90.33,47.69h-2.17c0-0.26,0.13-0.51,0.38-0.77     c0.26-0.13,0.51-0.26,0.77-0.26c0.38,0,0.64,0.13,0.77,0.26C90.2,47.05,90.33,47.3,90.33,47.69L90.33,47.69z M93.4,49.86     c0.38,0,0.64-0.13,0.89-0.26c0.26-0.13,0.38-0.26,0.51-0.51l0,0l0,0v0.64h0.64v-5.75H94.8v2.68l0,0     c-0.13-0.26-0.38-0.38-0.51-0.51c-0.26-0.13-0.51-0.13-0.77-0.13c-0.26,0-0.51,0-0.77,0.13s-0.38,0.26-0.64,0.38     c-0.13,0.13-0.26,0.38-0.38,0.64c-0.13,0.26-0.13,0.51-0.13,0.77c0,0.26,0,0.51,0.13,0.77s0.26,0.38,0.38,0.64     c0.13,0.13,0.38,0.26,0.51,0.38C93.02,49.86,93.14,49.86,93.4,49.86z M93.53,49.35c-0.26,0-0.38,0-0.51-0.13     c-0.13-0.13-0.26-0.13-0.38-0.26c-0.13-0.13-0.26-0.26-0.26-0.38c0-0.13-0.13-0.38-0.13-0.51s0-0.38,0.13-0.51     c0.13-0.13,0.13-0.26,0.26-0.38c0.13-0.13,0.26-0.26,0.38-0.26c0.13-0.13,0.38-0.13,0.51-0.13c0.26,0,0.38,0,0.51,0.13     c0.13,0.13,0.26,0.13,0.38,0.26c0.13,0.13,0.26,0.26,0.26,0.38c0,0.13,0.13,0.38,0.13,0.51s0,0.38-0.13,0.51     c0,0.13-0.13,0.26-0.26,0.38s-0.26,0.26-0.38,0.26C93.91,49.22,93.78,49.35,93.53,49.35z M98.89,49.73v-4.47l0,0l3.07,4.47h0.77     v-5.37h-0.64v4.47l0,0l-3.07-4.47h-0.77v5.37H98.89z M105.15,49.86c0.26,0,0.51,0,0.77-0.13c0.26-0.13,0.38-0.26,0.51-0.38l0,0     l0,0c0,0.13,0,0.13,0,0.26c0,0.13,0,0.13,0,0.26l0,0h0.51c0-0.13,0-0.26,0-0.26c0-0.13,0-0.26,0-0.26l0,0v-1.53     c0-0.51-0.13-0.89-0.38-1.15c-0.26-0.26-0.64-0.38-1.15-0.38c-0.26,0-0.51,0-0.77,0.13c-0.26,0.13-0.51,0.26-0.64,0.38l0,0     l0.38,0.38c0.13-0.13,0.26-0.26,0.51-0.26c0.13-0.13,0.38-0.13,0.51-0.13c0.26,0,0.51,0.13,0.64,0.26     c0.26-0.13,0.26,0.13,0.26,0.38l0,0v0.13h-0.26c-0.26,0-0.51,0-0.77,0c-0.26,0-0.51,0.13-0.77,0.13     c-0.26,0.13-0.38,0.26-0.51,0.38c-0.13,0.13-0.26,0.38-0.26,0.64c0,0.13,0,0.38,0.13,0.51c0.13,0.13,0.13,0.26,0.26,0.38     c0.13,0.13,0.26,0.13,0.38,0.26C104.77,49.86,105.03,49.86,105.15,49.86z M105.28,49.35c-0.26,0-0.38,0-0.51-0.13     c-0.13-0.13-0.26-0.26-0.26-0.51c0-0.26,0.13-0.38,0.38-0.51c0.26-0.13,0.51-0.13,0.89-0.13l0,0h0.51v0.26     c0,0.13,0,0.26-0.13,0.38s-0.13,0.26-0.26,0.38c-0.13,0.13-0.26,0.13-0.38,0.26C105.66,49.35,105.41,49.35,105.28,49.35z      M109.24,49.86c0.13,0,0.26,0,0.38,0c0.13,0,0.26,0,0.38-0.13l0,0v-0.51c-0.13,0-0.13,0.13-0.26,0.13c-0.13,0-0.13,0-0.26,0     s-0.26,0-0.26-0.13c0-0.13-0.13-0.13-0.13-0.13c0-0.13,0-0.13,0-0.26c0-0.13,0-0.26,0-0.38l0,0v-1.79h1.02v-0.51h-1.28v-1.02     h-0.64v1.02h-0.64v0.51h0.77v1.92c0,0.13,0,0.38,0,0.51c0,0.13,0.13,0.26,0.13,0.38c0.13,0.13,0.13,0.13,0.26,0.26     C108.86,49.86,109.11,49.86,109.24,49.86z M111.03,45.26c0.13,0,0.26,0,0.26-0.13c0.13-0.13,0.13-0.13,0.13-0.26     c0-0.13,0-0.26-0.13-0.26c-0.13-0.13-0.13-0.13-0.26-0.13s-0.26,0-0.26,0.13c-0.13,0.13-0.13,0.13-0.13,0.26     c0,0.13,0,0.26,0.13,0.26C110.77,45.13,110.9,45.26,111.03,45.26z M111.29,49.73v-3.58h-0.64v3.58H111.29z M114.22,49.86     c0.26,0,0.51,0,0.77-0.13c0.26-0.13,0.38-0.26,0.64-0.38c0.13-0.13,0.26-0.38,0.38-0.64c0.13-0.26,0.13-0.51,0.13-0.77     c0-0.26,0-0.51-0.13-0.77c-0.13-0.26-0.26-0.38-0.38-0.64c-0.13-0.13-0.38-0.26-0.64-0.38c-0.26-0.13-0.51-0.13-0.77-0.13     c-0.26,0-0.51,0-0.77,0.13s-0.38,0.26-0.64,0.38c-0.13,0.13-0.26,0.38-0.38,0.64c-0.13,0.26-0.13,0.51-0.13,0.77     c0,0.26,0,0.51,0.13,0.77s0.26,0.38,0.38,0.64c0.13,0.13,0.38,0.26,0.64,0.38C113.71,49.86,113.97,49.86,114.22,49.86z      M114.22,49.35c-0.26,0-0.38,0-0.51-0.13c-0.13-0.13-0.26-0.13-0.38-0.26c-0.13-0.13-0.26-0.26-0.26-0.38     c0-0.13-0.13-0.38-0.13-0.51s0-0.38,0.13-0.51c0-0.13,0.13-0.26,0.26-0.38c0.13-0.13,0.26-0.26,0.38-0.26     c0.13-0.13,0.38-0.13,0.51-0.13c0.26,0,0.38,0,0.51,0.13c0.13,0.13,0.26,0.13,0.38,0.26c0.13,0.13,0.26,0.26,0.26,0.38     c0,0.13,0.13,0.38,0.13,0.51s0,0.38-0.13,0.51c0,0.13-0.13,0.26-0.26,0.38c-0.13,0.13-0.26,0.26-0.38,0.26     S114.35,49.35,114.22,49.35z M117.55,49.73v-1.79c0-0.26,0-0.38,0.13-0.51c0-0.13,0.13-0.26,0.26-0.38     c0.13-0.13,0.26-0.26,0.38-0.26c0.13-0.13,0.26-0.13,0.51-0.13c0.26,0,0.51,0.13,0.64,0.26c0.13,0.13,0.26,0.38,0.26,0.77l0,0     v2.04h0.64v-2.17c0-0.26,0-0.38-0.13-0.64c0-0.13-0.13-0.38-0.26-0.51s-0.26-0.26-0.38-0.26c-0.13-0.13-0.38-0.13-0.64-0.13     c-0.13,0-0.26,0-0.38,0c-0.13,0-0.26,0.13-0.38,0.13c-0.13,0-0.13,0.13-0.26,0.26c-0.13,0.13-0.13,0.13-0.13,0.26l0,0l0,0     c0-0.13,0-0.26,0-0.26v-0.26l0,0h-0.51c0,0.13,0,0.26,0,0.38c0,0.13,0,0.26,0,0.51l0,0v2.68H117.55z M122.27,49.86     c0.26,0,0.51,0,0.77-0.13c0.26-0.13,0.38-0.26,0.51-0.38l0,0l0,0c0,0.13,0,0.13,0,0.26c0,0.13,0,0.13,0,0.26l0,0h0.51     c0-0.13,0-0.26,0-0.26c0-0.13,0-0.26,0-0.26l0,0v-1.53c0-0.51-0.13-0.89-0.38-1.15c-0.26-0.26-0.64-0.38-1.15-0.38     c-0.26,0-0.51,0-0.77,0.13c-0.26,0.13-0.51,0.26-0.64,0.38l0,0l0.38,0.38c0.13-0.13,0.26-0.26,0.51-0.26s0.38-0.13,0.51-0.13     c0.26,0,0.51,0.13,0.64,0.26s0.26,0.38,0.26,0.64l0,0v0.13h-0.26c-0.26,0-0.51,0-0.77,0c-0.26,0-0.51,0.13-0.77,0.13     c-0.26,0.13-0.38,0.26-0.51,0.38c-0.13,0.13-0.26,0.38-0.26,0.64c0,0.13,0,0.38,0.13,0.51c0.13,0.13,0.13,0.26,0.26,0.38     c0.13,0.13,0.26,0.13,0.38,0.26C122.02,49.86,122.15,49.86,122.27,49.86z M122.4,49.35c-0.26,0-0.38,0-0.51-0.13     c-0.13-0.13-0.26-0.26-0.26-0.51c0-0.26,0.13-0.38,0.38-0.51c0.26-0.13,0.51-0.13,0.89-0.13l0,0h0.64v0.26     c0,0.13,0,0.26-0.13,0.38c0,0.13-0.13,0.26-0.26,0.38c-0.13,0.13-0.26,0.13-0.38,0.26C122.78,49.35,122.66,49.35,122.4,49.35z      M125.85,49.73v-5.75h-0.64v5.75H125.85z M129.3,49.73V47.3h1.02c0.13,0,0.38,0,0.64-0.13c0.26-0.13,0.38-0.13,0.51-0.26     c0.13-0.13,0.26-0.26,0.38-0.51c0.13-0.26,0.13-0.38,0.13-0.77c0-0.26,0-0.51-0.13-0.64c-0.13-0.13-0.26-0.38-0.38-0.51     s-0.38-0.26-0.64-0.26c-0.26,0-0.51-0.13-0.77-0.13l0,0h-1.53v5.62H129.3z M130.45,46.79h-1.15V45h1.02     c0.26,0,0.64,0.13,0.77,0.26c0.26,0.13,0.26,0.38,0.26,0.64s-0.13,0.51-0.26,0.64C130.96,46.67,130.71,46.79,130.45,46.79     L130.45,46.79z M133.77,49.73v-5.75h-0.64v5.75H133.77z M136.07,49.86c0.26,0,0.51,0,0.77-0.13c0.26-0.13,0.38-0.26,0.51-0.38     l0,0l0,0c0,0.13,0,0.13,0,0.26c0,0.13,0,0.13,0,0.26l0,0h0.51c0-0.13,0-0.26,0-0.26c0-0.13,0-0.26,0-0.26l0,0v-1.53     c0-0.51-0.13-0.89-0.38-1.15c-0.26-0.26-0.64-0.38-1.15-0.38c-0.26,0-0.51,0-0.77,0.13c-0.26,0.13-0.51,0.26-0.64,0.38l0,0     l0.38,0.38c0.13-0.13,0.26-0.26,0.51-0.26c0.26,0,0.38-0.13,0.51-0.13c0.26,0,0.51,0.13,0.64,0.26s0.26,0.38,0.26,0.64l0,0v0.13     h-0.26c-0.26,0-0.51,0-0.77,0s-0.51,0.13-0.77,0.13c-0.26,0.13-0.38,0.26-0.51,0.38c-0.13,0.13-0.26,0.38-0.26,0.64     c0,0.13,0,0.38,0.13,0.51c0.13,0.13,0.13,0.26,0.26,0.38c0.13,0.13,0.26,0.13,0.38,0.26C135.69,49.86,135.82,49.86,136.07,49.86z      M136.2,49.35c-0.26,0-0.38,0-0.51-0.13c-0.13-0.13-0.26-0.26-0.26-0.51c0-0.26,0.13-0.38,0.38-0.51     c0.26-0.13,0.51-0.13,0.89-0.13l0,0h0.64v0.26c0,0.13,0,0.26-0.13,0.38c0,0.13-0.13,0.26-0.26,0.38     c-0.13,0.13-0.26,0.13-0.38,0.26C136.45,49.35,136.33,49.35,136.2,49.35z M140.16,49.86c0.13,0,0.26,0,0.38,0s0.26,0,0.38-0.13     l0,0v-0.51c-0.13,0-0.13,0.13-0.26,0.13s-0.13,0-0.26,0s-0.26,0-0.26-0.13c-0.13,0-0.13-0.13-0.13-0.13s0-0.13,0-0.26     c0-0.13,0-0.26,0-0.38l0,0v-1.79h1.02v-0.51h-1.02v-1.02h-0.64v1.02h-0.77v0.51h0.77v1.92c0,0.13,0,0.38,0,0.51     c0,0.13,0.13,0.26,0.13,0.38c0,0.13,0.13,0.13,0.26,0.26C139.78,49.86,139.9,49.86,140.16,49.86z M142.46,49.73v-3.07h0.89v-0.51     h-0.89v-0.64c0-0.13,0-0.26,0-0.38c0-0.13,0-0.26,0.13-0.38c0-0.13,0.13-0.13,0.13-0.26c0.13,0,0.26-0.13,0.38-0.13     s0.26,0,0.38,0.13l0,0l0.13-0.51c0,0-0.13,0-0.26-0.13c-0.13,0-0.13,0-0.26,0c-0.26,0-0.38,0-0.64,0.13     c-0.13,0.13-0.26,0.13-0.38,0.26c-0.13,0.13-0.13,0.26-0.26,0.51c0,0.13,0,0.38,0,0.64l0,0v0.77h-0.77v0.51h0.77v3.07H142.46z      M145.65,49.86c0.26,0,0.51,0,0.77-0.13c0.26-0.13,0.38-0.26,0.64-0.38c0.13-0.13,0.26-0.38,0.38-0.64s0.13-0.51,0.13-0.77     c0-0.26,0-0.51-0.13-0.77c-0.13-0.26-0.26-0.38-0.38-0.64c-0.13-0.13-0.38-0.26-0.64-0.38c-0.26-0.13-0.51-0.13-0.77-0.13     s-0.51,0-0.77,0.13s-0.38,0.26-0.64,0.38c-0.13,0.13-0.26,0.38-0.38,0.64c-0.13,0.26-0.13,0.51-0.13,0.77     c0,0.26,0,0.51,0.13,0.77s0.26,0.38,0.38,0.64c0.13,0.13,0.38,0.26,0.64,0.38C145.14,49.86,145.4,49.86,145.65,49.86z      M145.65,49.35c-0.26,0-0.38,0-0.51-0.13c-0.13-0.13-0.26-0.13-0.38-0.26c-0.13-0.13-0.26-0.26-0.26-0.38     c0-0.13-0.13-0.38-0.13-0.51s0-0.38,0.13-0.51c0-0.13,0.13-0.26,0.26-0.38c0.13-0.13,0.26-0.26,0.38-0.26     c0.13-0.13,0.38-0.13,0.51-0.13c0.26,0,0.38,0,0.51,0.13c0.13,0.13,0.26,0.13,0.38,0.26c0.13,0.13,0.26,0.26,0.26,0.38     c0,0.13,0.13,0.38,0.13,0.51s0,0.38-0.13,0.51c0,0.13-0.13,0.26-0.26,0.38s-0.26,0.26-0.38,0.26     C146.04,49.22,145.78,49.35,145.65,49.35z M148.98,49.73v-1.79c0-0.38,0.13-0.77,0.26-1.02c0.13-0.26,0.38-0.38,0.77-0.38     c0.13,0,0.26,0,0.26,0l0,0V45.9c-0.13,0-0.13,0-0.26,0c-0.13,0-0.26,0-0.38,0c-0.13,0-0.26,0.13-0.38,0.13s-0.13,0.13-0.26,0.26     s-0.13,0.13-0.13,0.26l0,0l0,0c0-0.13,0-0.26,0-0.26c0-0.13,0-0.26,0-0.26l0,0h-0.51c0,0.13,0,0.26,0,0.38c0,0.13,0,0.26,0,0.51     l0,0v2.81H148.98z M151.66,49.73v-1.79c0-0.26,0-0.38,0.13-0.51c0-0.13,0.13-0.26,0.26-0.38c0.13-0.13,0.26-0.26,0.38-0.26     c0.13-0.13,0.26-0.13,0.51-0.13c0.26,0,0.38,0.13,0.51,0.26c0.13,0.13,0.13,0.38,0.13,0.89l0,0v1.92h0.64v-2.04     c0-0.13,0-0.26,0.13-0.38c0-0.13,0.13-0.26,0.26-0.38c0.13-0.13,0.13-0.13,0.26-0.26c0.13-0.13,0.26-0.13,0.38-0.13     s0.26,0,0.38,0.13c0.13,0.13,0.26,0.13,0.26,0.26c0,0.13,0.13,0.26,0.13,0.26c0,0.13,0,0.26,0,0.38l0,0v2.17h0.64v-2.17     c0-0.26,0-0.38-0.13-0.64c0-0.13-0.13-0.38-0.26-0.51c-0.13-0.13-0.26-0.26-0.38-0.26c-0.13-0.13-0.38-0.13-0.64-0.13     s-0.51,0-0.64,0.13c-0.13,0.13-0.38,0.26-0.51,0.51c0,0-0.13-0.13-0.13-0.26c0-0.13-0.13-0.13-0.26-0.26s-0.26-0.13-0.38-0.13     c-0.13,0-0.26-0.13-0.51-0.13c-0.13,0-0.26,0-0.38,0c-0.13,0-0.26,0.13-0.38,0.13c-0.13,0-0.13,0.13-0.26,0.26     s-0.13,0.13-0.13,0.26l0,0l0,0c0-0.13,0-0.26,0-0.26c0-0.13,0-0.26,0-0.26l0,0h-0.64c0,0.13,0,0.26,0,0.38c0,0.13,0,0.26,0,0.51     l0,0v2.81H151.66z" class="st8" id="UnifiedNationalPlatform_00000108277172025248522520000000393981104344298680_"/></g></g></g><g id="Layer_2"/></svg>