<?xml version="1.0" encoding="UTF-8"?>
<svg xmlns="http://www.w3.org/2000/svg" onmouseup="{ if(window.parent.document.onmouseup) window.parent.document.onmouseup(arguments[0]);}" xml:space="preserve" style="enable-background:new 0 0 23.63 26.62;" viewBox="0 0 23.63 26.62" y="0px" x="0px" id="Layer_1" version="1.1" xmlns:xlink="http://www.w3.org/1999/xlink"><style type="text/css">
	.st0{fill:#FFFFFF;}
</style><g id="Layer_1_00000121249923007849388240000004349970432950536589_"/><g id="Layer_2_00000157276073317067679500000003996476964575773341_"><g><g><g><path data-cppathid="10000" d="M7.39,25.8H6.83c-1.85,0-3.35-1.5-3.35-3.35V4.39c0-1.85,1.5-3.35,3.35-3.35H7.4c1.85,0,3.35,1.5,3.35,3.35      v18.06C10.74,24.3,9.24,25.8,7.39,25.8z" class="st0"/><path data-cppathid="10001" d="M7.11,23.86c-0.93,0-1.69-0.76-1.69-1.69V4.67c0-0.93,0.76-1.69,1.69-1.69S8.8,3.74,8.8,4.67v17.49      C8.8,23.1,8.04,23.86,7.11,23.86z" class="st0"/></g><g><path data-cppathid="10002" d="M16.81,25.8h-0.57c-1.85,0-3.35-1.5-3.35-3.35V4.39c0-1.85,1.5-3.35,3.35-3.35h0.57      c1.85,0,3.35,1.5,3.35,3.35v18.06C20.15,24.3,18.66,25.8,16.81,25.8z" class="st0"/><path data-cppathid="10003" d="M16.52,23.86c-0.93,0-1.69-0.76-1.69-1.69V4.67c0-0.93,0.76-1.69,1.69-1.69s1.69,0.76,1.69,1.69v17.49      C18.22,23.1,17.46,23.86,16.52,23.86z" class="st0"/></g></g></g></g></svg>